<svg width="252" height="250" viewBox="0 0 252 250" fill="none" xmlns="http://www.w3.org/2000/svg">
<g clip-path="url(#clip0_44_2)">
<path d="M252 125C252 194.033 195.586 250 126 250C117.239 250 108.679 249.117 100.422 247.425C43.1004 235.7 0 185.342 0 125C0 55.9667 56.4144 0 126 0C186.824 0 237.586 42.7583 249.404 99.625C251.11 107.817 252 116.308 252 125Z" fill="#DDF8E8"/>
<path d="M207.976 58.525H50.6688V198.058H207.976V58.525Z" fill="#CCCCCC"/>
<path d="M201.331 51.9417H44.0244V191.475H201.331V51.9417Z" fill="#615055"/>
<path d="M201.331 51.9417H44.0244V71.3H201.331V51.9417Z" fill="#2E282B"/>
<path d="M56.1288 64.3666C57.6597 64.3666 58.9008 63.1354 58.9008 61.6166C58.9008 60.0979 57.6597 58.8666 56.1288 58.8666C54.5979 58.8666 53.3568 60.0979 53.3568 61.6166C53.3568 63.1354 54.5979 64.3666 56.1288 64.3666Z" fill="#FF363E"/>
<path d="M64.6968 64.3666C66.2277 64.3666 67.4688 63.1354 67.4688 61.6166C67.4688 60.0979 66.2277 58.8666 64.6968 58.8666C63.1659 58.8666 61.9248 60.0979 61.9248 61.6166C61.9248 63.1354 63.1659 64.3666 64.6968 64.3666Z" fill="#FFDF21"/>
<path d="M73.2648 64.3666C74.7957 64.3666 76.0368 63.1354 76.0368 61.6166C76.0368 60.0979 74.7957 58.8666 73.2648 58.8666C71.7339 58.8666 70.4928 60.0979 70.4928 61.6166C70.4928 63.1354 71.7339 64.3666 73.2648 64.3666Z" fill="#3CFFA1"/>
<path d="M104.311 118.225L91.812 131.333L104.303 144.283L98.9016 149.883L81.1776 131.333L98.91 112.708L104.311 118.225Z" fill="#3B3436"/>
<path d="M143.396 102.717L116.962 158.758H107.612L133.804 102.717H143.396Z" fill="#3B3436"/>
<path d="M152.502 112.708L170.234 131.333L152.502 149.883L147.101 144.283L159.592 131.333L147.101 118.225L152.502 112.708Z" fill="#3B3436"/>
<path d="M101.287 114.842L88.788 127.95L101.279 140.9L95.8776 146.5L78.1452 127.95L95.8776 109.325L101.287 114.842Z" fill="#CDD5D1"/>
<path d="M140.372 99.3333L113.938 155.375H104.588L130.78 99.3333H140.372Z" fill="#CDD5D1"/>
<path d="M149.478 109.325L167.21 127.95L149.478 146.5L144.077 140.9L156.568 127.95L144.077 114.842L149.478 109.325Z" fill="#CDD5D1"/>
</g>
<defs>
<clipPath id="clip0_44_2">
<rect width="252" height="250" fill="white"/>
</clipPath>
</defs>
</svg>
