<svg width="203" height="210" viewBox="0 0 203 210" fill="none" xmlns="http://www.w3.org/2000/svg">
<path d="M101.675 3L201 54.1768V156.531L101.675 207.707L2.35004 156.531L2.35004 54.1768L101.675 3Z" stroke="#DDF8E8" stroke-width="4" stroke-linecap="round"/>
<path fill-rule="evenodd" clip-rule="evenodd" d="M69.6477 77.7657C68.3638 77.7996 67.145 78.2781 66.2495 79.1L40.4819 102.096C39.555 102.923 39.0342 104.046 39.0342 105.216C39.0342 106.386 39.555 107.508 40.4819 108.335L66.2495 131.331C66.7062 131.75 67.2517 132.084 67.8541 132.313C68.4565 132.542 69.104 132.662 69.7588 132.666C70.4137 132.67 71.0629 132.558 71.6688 132.336C72.2746 132.114 72.8251 131.787 73.2881 131.374C73.7512 130.96 74.1176 130.469 74.3662 129.928C74.6148 129.388 74.7405 128.808 74.736 128.224C74.7316 127.64 74.5971 127.062 74.3403 126.524C74.0836 125.987 73.7097 125.5 73.2404 125.092L50.9695 105.216L73.2404 85.3394C73.9546 84.7197 74.4423 83.9218 74.6397 83.0505C74.8371 82.1791 74.735 81.2748 74.3466 80.4562C73.9583 79.6375 73.3019 78.9426 72.4634 78.4626C71.625 77.9826 70.6436 77.7398 69.6479 77.7661L69.6477 77.7657Z" fill="#DDF8E8" stroke="#615055" stroke-width="6"/>
<path fill-rule="evenodd" clip-rule="evenodd" d="M133.553 77.7657C132.57 77.7661 131.608 78.0283 130.793 78.5187C129.977 79.0092 129.344 79.7056 128.974 80.519C128.604 81.3324 128.515 82.2257 128.717 83.0847C128.919 83.9437 129.404 84.7294 130.109 85.3412L152.38 105.218L130.109 125.094C129.64 125.502 129.266 125.988 129.009 126.526C128.753 127.064 128.618 127.641 128.614 128.226C128.609 128.81 128.735 129.39 128.983 129.93C129.232 130.471 129.598 130.962 130.061 131.376C130.525 131.789 131.075 132.116 131.681 132.338C132.287 132.559 132.936 132.672 133.591 132.668C134.246 132.664 134.893 132.544 135.496 132.315C136.098 132.085 136.643 131.752 137.1 131.333L162.868 108.337C163.795 107.509 164.315 106.387 164.315 105.217C164.315 104.047 163.795 102.925 162.868 102.098L137.1 79.1018C136.639 78.6786 136.088 78.3422 135.479 78.1126C134.869 77.8829 134.215 77.7647 133.553 77.7649L133.553 77.7657Z" fill="#D9D9D9" stroke="#615055" stroke-width="6"/>
<path fill-rule="evenodd" clip-rule="evenodd" d="M107.649 70.8009C106.509 70.8134 105.409 71.177 104.535 71.8302C103.661 72.4833 103.067 73.3859 102.854 74.3851L88.9956 134.564C88.8594 135.134 88.8508 135.721 88.9704 136.294C89.0899 136.866 89.3352 137.412 89.6921 137.899C90.0491 138.386 90.5105 138.806 91.05 139.133C91.5894 139.461 92.1961 139.69 92.8351 139.807C93.4742 139.924 94.1329 139.927 94.7733 139.816C95.4137 139.705 96.0232 139.482 96.5665 139.16C97.1099 138.838 97.5764 138.423 97.9392 137.939C98.302 137.455 98.5539 136.912 98.6804 136.341L112.538 76.1615C112.699 75.5125 112.692 74.8395 112.52 74.1929C112.348 73.5463 112.014 72.9428 111.544 72.4274C111.074 71.912 110.48 71.498 109.805 71.2164C109.131 70.9348 108.394 70.7928 107.649 70.801L107.649 70.8009Z" fill="#DDF8E8" stroke="#615055" stroke-width="6"/>
</svg>
