<svg width="303" height="298" viewBox="0 0 303 298" fill="none" xmlns="http://www.w3.org/2000/svg">
<g clip-path="url(#clip0_201_2)">
<path d="M277.75 186.25H270.175L166.65 84.4333C165.526 83.229 164.161 82.2675 162.639 81.6097C161.118 80.9519 159.474 80.6123 157.812 80.6123C156.151 80.6123 154.507 80.9519 152.986 81.6097C151.464 82.2675 150.099 83.229 148.975 84.4333L111.731 121.062C110.551 122.2 108.965 122.837 107.312 122.837C105.66 122.837 104.074 122.2 102.894 121.062L93.425 111.75L103.525 101.817L157.812 48.425L212.1 101.817C214.431 104.156 217.607 105.495 220.937 105.542H277.75C281.098 105.542 284.31 104.233 286.677 101.905C289.045 99.5763 290.375 96.4181 290.375 93.125C290.375 89.8319 289.045 86.6737 286.677 84.3451C284.31 82.0165 281.098 80.7083 277.75 80.7083H225.987L166.65 22.35C165.526 21.1457 164.161 20.1842 162.639 19.5264C161.118 18.8686 159.474 18.5289 157.812 18.5289C156.151 18.5289 154.507 18.8686 152.986 19.5264C151.464 20.1842 150.099 21.1457 148.975 22.35L89.6375 80.7083H25.25C21.9016 80.7083 18.6904 82.0165 16.3228 84.3451C13.9551 86.6737 12.625 89.8319 12.625 93.125C12.625 96.4181 13.9551 99.5763 16.3228 101.905C18.6904 104.233 21.9016 105.542 25.25 105.542H66.9125C65.579 108.812 65.2874 112.404 66.0766 115.841C66.8657 119.278 68.6982 122.398 71.3312 124.788L85.2187 138.446C91.1187 144.133 99.0509 147.319 107.312 147.319C115.574 147.319 123.506 144.133 129.406 138.446L157.812 110.508L256.287 207.358C258.618 209.698 261.795 211.037 265.125 211.083H277.75C281.098 211.083 284.31 209.775 286.677 207.447C289.045 205.118 290.375 201.96 290.375 198.667C290.375 195.374 289.045 192.215 286.677 189.887C284.31 187.558 281.098 186.25 277.75 186.25Z" fill="#CCB7FF"/>
<path d="M198.212 171.35C195.781 169.557 192.774 168.686 189.743 168.898C186.711 169.11 183.859 170.39 181.71 172.503C179.561 174.617 178.26 177.422 178.044 180.403C177.829 183.385 178.714 186.342 180.537 188.733L224.725 232.192C225.849 233.396 227.214 234.358 228.736 235.015C230.257 235.673 231.901 236.013 233.562 236.013C235.224 236.013 236.868 235.673 238.389 235.015C239.911 234.358 241.276 233.396 242.4 232.192C243.625 231.087 244.602 229.744 245.271 228.247C245.94 226.751 246.285 225.134 246.285 223.5C246.285 221.866 245.94 220.249 245.271 218.753C244.602 217.257 243.625 215.913 242.4 214.808L198.212 171.35Z" fill="#CCB7FF"/>
<path d="M160.337 189.975C157.906 188.182 154.899 187.311 151.868 187.523C148.836 187.735 145.984 189.015 143.835 191.128C141.686 193.242 140.385 196.047 140.169 199.028C139.954 202.01 140.839 204.967 142.662 207.358L186.85 250.817C187.974 252.021 189.339 252.983 190.861 253.64C192.382 254.298 194.026 254.638 195.687 254.638C197.349 254.638 198.993 254.298 200.514 253.64C202.036 252.983 203.401 252.021 204.525 250.817C205.75 249.712 206.727 248.369 207.396 246.872C208.065 245.376 208.41 243.759 208.41 242.125C208.41 240.491 208.065 238.874 207.396 237.378C206.727 235.882 205.75 234.538 204.525 233.433L160.337 189.975Z" fill="#CCB7FF"/>
<path d="M116.15 202.392C113.719 200.598 110.711 199.728 107.68 199.94C104.649 200.151 101.797 201.432 99.6478 203.545C97.4989 205.659 96.1972 208.463 95.9818 211.445C95.7663 214.426 96.6516 217.384 98.475 219.775L142.663 263.233C143.786 264.438 145.152 265.399 146.673 266.057C148.194 266.715 149.838 267.054 151.5 267.054C153.162 267.054 154.806 266.715 156.327 266.057C157.848 265.399 159.214 264.438 160.337 263.233C161.562 262.128 162.54 260.785 163.209 259.289C163.877 257.793 164.223 256.176 164.223 254.542C164.223 252.907 163.877 251.291 163.209 249.794C162.54 248.298 161.562 246.955 160.337 245.85L116.15 202.392Z" fill="#CCB7FF"/>
<path d="M46.7125 189.975C44.3815 187.636 41.2051 186.297 37.875 186.25H25.25C21.9016 186.25 18.6904 187.558 16.3228 189.887C13.9551 192.215 12.625 195.374 12.625 198.667C12.625 201.96 13.9551 205.118 16.3228 207.447C18.6904 209.775 21.9016 211.083 25.25 211.083H32.825L98.475 275.65C99.5985 276.854 100.964 277.816 102.486 278.474C104.007 279.131 105.651 279.471 107.312 279.471C108.974 279.471 110.618 279.131 112.139 278.474C113.661 277.816 115.026 276.854 116.15 275.65C117.375 274.545 118.352 273.202 119.021 271.706C119.69 270.209 120.035 268.593 120.035 266.958C120.035 265.324 119.69 263.707 119.021 262.211C118.352 260.715 117.375 259.372 116.15 258.267L46.7125 189.975Z" fill="#CCB7FF"/>
</g>
<defs>
<clipPath id="clip0_201_2">
<rect width="303" height="298" fill="white"/>
</clipPath>
</defs>
</svg>
