<svg width="232" height="232" viewBox="0 0 232 232" fill="none" xmlns="http://www.w3.org/2000/svg">
<path d="M152.897 122.575C141.914 131.217 128.085 136.39 113.058 136.39C98.4051 136.39 84.8795 131.474 74.0335 123.213C38.6373 128.934 11.6 159.623 11.6 196.636C11.6 237.726 44.9059 211.013 85.9908 211.013H146.005C187.092 211.013 220.4 237.726 220.4 196.636C220.4 157.878 190.75 126.053 152.897 122.575Z" fill="#CCB7FF"/>
<path d="M113.058 127.732C143.879 127.732 168.952 102.655 168.952 71.8318C168.952 41.0106 143.879 15.9338 113.058 15.9338C82.237 15.9338 57.1625 41.0106 57.1625 71.8318C57.1648 102.655 82.2394 127.732 113.058 127.732Z" fill="#CCB7FF"/>
</svg>
