<svg width="480" height="95" viewBox="0 0 480 95" fill="none" xmlns="http://www.w3.org/2000/svg">
<g clip-path="url(#clip0_202_68)">
<path d="M98.8587 46.6506C98.8587 72.1387 76.7283 92.8012 49.4294 92.8012C22.1304 92.8012 0 72.1387 0 46.6506C0 21.1624 22.1304 0.5 49.4294 0.5C76.7283 0.5 98.8587 21.1624 98.8587 46.6506Z" fill="white"/>
<path d="M228.649 48.3493C228.649 73.8375 206.518 94.4999 179.219 94.4999C151.92 94.4999 129.79 73.8375 129.79 48.3493C129.79 22.8611 151.92 2.19873 179.219 2.19873C206.518 2.19873 228.649 22.8611 228.649 48.3493Z" fill="white"/>
<path d="M58.8301 30.6771C57.8421 30.1578 56.7201 29.8985 55.4646 29.8985C51.9245 29.8985 50.1541 31.9846 50.1541 36.154V40.709H57.5643V44.7448H50.1541V70.2279H45.1214V44.7448H39.7182V40.709H45.1214V35.9235C45.1214 32.8295 46.0785 30.3843 47.9926 28.587C49.9073 26.7903 52.2951 25.8916 55.1559 25.8916C56.6994 25.8916 57.9239 26.0649 58.8301 26.4109V30.6771Z" fill="#F2F2F2"/>
<path d="M58.8301 30.6771C57.8421 30.1578 56.7201 29.8985 55.4646 29.8985C51.9245 29.8985 50.1541 31.9846 50.1541 36.154V40.709H57.5643V44.7448H50.1541V70.2279H45.1214V44.7448H39.7182V40.709H45.1214V35.9235C45.1214 32.8295 46.0785 30.3843 47.9926 28.587C49.9073 26.7903 52.2951 25.8916 55.1559 25.8916C56.6994 25.8916 57.9239 26.0649 58.8301 26.4109V30.6771Z" stroke="#222222" stroke-width="4" stroke-miterlimit="10" stroke-linecap="round" stroke-linejoin="round"/>
<path d="M191.419 71.2831H166.413C159.92 71.2831 154.656 66.3685 154.656 60.3061V36.9589C154.656 30.8965 159.92 25.9819 166.413 25.9819H191.419C197.912 25.9819 203.176 30.8965 203.176 36.9589V60.3061C203.176 66.3685 197.912 71.2831 191.419 71.2831Z" stroke="#222222" stroke-width="5.33333" stroke-miterlimit="10"/>
<path d="M178.916 57.7332C173.533 57.7332 169.169 53.6589 169.169 48.6327C169.169 43.6065 173.533 39.5317 178.916 39.5317C184.299 39.5317 188.663 43.6065 188.663 48.6327C188.663 53.6589 184.299 57.7332 178.916 57.7332Z" stroke="#222222" stroke-width="5.33333" stroke-miterlimit="10"/>
<path d="M356.013 46.6506C356.013 72.1387 333.882 92.8012 306.583 92.8012C279.284 92.8012 257.154 72.1387 257.154 46.6506C257.154 21.1624 279.284 0.5 306.583 0.5C333.882 0.5 356.013 21.1624 356.013 46.6506Z" fill="white"/>
<path d="M479.131 47.7829C479.131 73.271 457.001 93.9335 429.702 93.9335C402.403 93.9335 380.273 73.271 380.273 47.7829C380.273 22.2947 402.403 1.63232 429.702 1.63232C457.001 1.63232 479.131 22.2947 479.131 47.7829Z" fill="white"/>
<path d="M193.45 37.3474C192.098 37.3474 191.003 36.3242 191.003 35.062C191.003 33.7998 192.098 32.7771 193.45 32.7771C194.802 32.7771 195.898 33.7998 195.898 35.062C195.898 36.3242 194.802 37.3474 193.45 37.3474Z" fill="#222222"/>
<path d="M285.02 61.8397C290.225 62.1755 294.876 61.0294 299.052 58.1862C295.351 57.2779 292.148 55.9523 290.483 52.4675C289.2 50.6458 293.006 51.9522 294.03 51.2942C290.035 49.8355 286.973 47.1837 286.57 43.0001C286.199 41.0493 289.17 43.3812 290.584 42.9163C286.974 39.9836 285.437 35.6024 287.477 31.4313C287.793 30.7506 288.03 30.5655 288.663 31.2325C292.732 35.5209 297.743 38.3663 303.733 39.6795C304.73 39.6846 309.08 41.1999 308.564 39.4337C307.141 31.0632 318.596 25.3553 325.299 31.2025C327.287 32.4115 330.079 30.3282 332.084 29.7002C332.052 30.9341 331.599 31.5457 328.523 34.5463C330.28 34.4591 331.816 33.8402 333.635 33.3136C332.297 36.1177 328.567 37.0396 328.707 39.6886C329.369 59.7966 302.508 73.7075 285.02 61.8397Z" fill="#222222"/>
<path d="M285.02 61.8397C290.225 62.1755 294.876 61.0294 299.052 58.1862C295.351 57.2779 292.148 55.9523 290.483 52.4675C289.2 50.6458 293.006 51.9522 294.03 51.2942C290.035 49.8355 286.973 47.1837 286.57 43.0001C286.199 41.0493 289.17 43.3812 290.584 42.9163C286.974 39.9836 285.437 35.6024 287.477 31.4313C287.793 30.7506 288.03 30.5655 288.663 31.2325C292.732 35.5209 297.743 38.3663 303.733 39.6795C304.73 39.6846 309.08 41.1999 308.564 39.4337C307.141 31.0632 318.596 25.3553 325.299 31.2025C327.287 32.4115 330.079 30.3282 332.084 29.7002C332.052 30.9341 331.599 31.5457 328.523 34.5463C330.28 34.4591 331.816 33.8402 333.635 33.3136C332.297 36.1177 328.567 37.0396 328.707 39.6886C329.369 59.7966 302.508 73.7075 285.02 61.8397Z" stroke="#222222" stroke-width="4" stroke-miterlimit="10" stroke-linecap="round" stroke-linejoin="round"/>
<path d="M417.513 28.2763C417.509 31.0154 415.167 33.1847 412.216 33.1847C405.252 33.0426 405.324 23.5282 412.204 23.3606C415.118 23.3578 417.519 25.5786 417.513 28.2763Z" fill="#222222"/>
<path d="M417.513 28.2763C417.509 31.0154 415.167 33.1847 412.216 33.1847C405.252 33.0426 405.324 23.5282 412.204 23.3606C415.118 23.3578 417.519 25.5786 417.513 28.2763Z" stroke="#222222" stroke-width="4" stroke-miterlimit="10"/>
<path d="M416.756 63.7791C416.758 64.4223 416.49 64.6205 415.831 64.6149C413.409 64.5916 410.986 64.5871 408.563 64.6166C407.826 64.6262 407.638 64.3402 407.641 63.7054C407.669 55.1882 407.642 46.6699 407.651 38.151C407.651 37.1 407.663 37.0893 408.753 37.0876C411.126 37.0848 413.5 37.1 415.873 37.0797C416.501 37.074 416.756 37.2682 416.756 37.8781C416.743 46.5114 416.743 55.1452 416.756 63.7791Z" fill="#222222"/>
<path d="M416.756 63.7791C416.758 64.4223 416.49 64.6205 415.831 64.6149C413.409 64.5916 410.986 64.5871 408.563 64.6166C407.826 64.6262 407.638 64.3402 407.641 63.7054C407.669 55.1882 407.642 46.6699 407.651 38.151C407.651 37.1 407.663 37.0893 408.753 37.0876C411.126 37.0848 413.5 37.1 415.873 37.0797C416.501 37.074 416.756 37.2682 416.756 37.8781C416.743 46.5114 416.743 55.1452 416.756 63.7791Z" stroke="#222222" stroke-width="4" stroke-miterlimit="10"/>
<path d="M451.232 55.7111C451.232 58.3448 451.234 60.9774 451.231 63.6117C451.231 64.5681 451.194 64.6043 450.202 64.6055C447.826 64.6083 445.452 64.6083 443.076 64.6043C442.167 64.6026 442.103 64.546 442.102 63.6949C442.097 59.2367 442.099 54.7785 442.099 50.3197C442.099 49.2319 442.056 48.1492 441.764 47.0875C441.241 45.1894 440.02 44.1038 438.147 43.8739C433.303 43.2952 431.6 46.7115 431.666 50.4624C431.629 54.8046 431.649 59.1478 431.645 63.4911C431.645 64.6026 431.642 64.6055 430.442 64.6055C428.141 64.6066 425.84 64.5919 423.538 64.614C422.873 64.6208 422.617 64.4033 422.619 63.7685C422.633 55.1522 422.633 46.5354 422.617 37.9185C422.616 37.2792 422.875 37.0714 423.538 37.0782C425.84 37.1031 428.14 37.1003 430.441 37.0799C431.072 37.0742 431.345 37.2781 431.321 37.8851C431.288 38.6683 431.312 39.4554 431.323 40.2402C431.326 40.3897 431.277 40.597 431.493 40.6547C431.663 40.7006 431.751 40.5437 431.828 40.4316C434.786 36.0901 440.964 35.6642 445.415 37.2486C447.532 38.0029 448.978 39.4514 449.878 41.3812C450.886 43.5438 451.132 45.8451 451.195 48.1572C451.265 50.6736 451.211 53.1935 451.211 55.7111H451.232Z" fill="#222222"/>
<path d="M451.232 55.7111C451.232 58.3448 451.234 60.9774 451.231 63.6117C451.231 64.5681 451.194 64.6043 450.202 64.6055C447.826 64.6083 445.452 64.6083 443.076 64.6043C442.167 64.6026 442.103 64.546 442.102 63.6949C442.097 59.2367 442.099 54.7785 442.099 50.3197C442.099 49.2319 442.056 48.1492 441.764 47.0875C441.241 45.1894 440.02 44.1038 438.147 43.8739C433.303 43.2952 431.6 46.7115 431.666 50.4624C431.629 54.8046 431.649 59.1478 431.645 63.4911C431.645 64.6026 431.642 64.6055 430.442 64.6055C428.141 64.6066 425.84 64.5919 423.538 64.614C422.873 64.6208 422.617 64.4033 422.619 63.7685C422.633 55.1522 422.633 46.5354 422.617 37.9185C422.616 37.2792 422.875 37.0714 423.538 37.0782C425.84 37.1031 428.14 37.1003 430.441 37.0799C431.072 37.0742 431.345 37.2781 431.321 37.8851C431.288 38.6683 431.312 39.4554 431.323 40.2402C431.326 40.3897 431.277 40.597 431.493 40.6547C431.663 40.7006 431.751 40.5437 431.828 40.4316C434.786 36.0901 440.964 35.6642 445.415 37.2486C447.532 38.0029 448.978 39.4514 449.878 41.3812C450.886 43.5438 451.132 45.8451 451.195 48.1572C451.265 50.6736 451.211 53.1935 451.211 55.7111H451.232Z" stroke="#222222" stroke-width="4" stroke-miterlimit="10"/>
</g>
<defs>
<clipPath id="clip0_202_68">
<rect width="480" height="95" fill="white"/>
</clipPath>
</defs>
</svg>
