<svg width="480" height="95" viewBox="0 0 480 95" fill="none" xmlns="http://www.w3.org/2000/svg">
<path d="M98.8587 46.6507C98.8587 72.1388 76.7283 92.8013 49.4294 92.8013C22.1304 92.8013 0 72.1388 0 46.6507C0 21.1625 22.1304 0.500057 49.4294 0.500057C76.7283 0.500057 98.8587 21.1625 98.8587 46.6507Z" fill="#CDD5D1"/>
<path d="M228.649 48.3494C228.649 73.8376 206.518 94.5 179.219 94.5C151.92 94.5 129.79 73.8376 129.79 48.3494C129.79 22.8612 151.92 2.19879 179.219 2.19879C206.518 2.19879 228.649 22.8612 228.649 48.3494Z" fill="#CDD5D1"/>
<path d="M58.8301 30.677C57.8421 30.1577 56.7201 29.8984 55.4646 29.8984C51.9245 29.8984 50.1541 31.9845 50.1541 36.1539V40.7089H57.5643V44.7447H50.1541V70.2278H45.1214V44.7447H39.7182V40.7089H45.1214V35.9234C45.1214 32.8294 46.0785 30.3842 47.9926 28.5869C49.9073 26.7902 52.2951 25.8915 55.1559 25.8915C56.6994 25.8915 57.9239 26.0648 58.8301 26.4108V30.677Z" fill="#F2F2F2"/>
<path d="M58.8301 30.677C57.8421 30.1577 56.7201 29.8984 55.4646 29.8984C51.9245 29.8984 50.1541 31.9845 50.1541 36.1539V40.7089H57.5643V44.7447H50.1541V70.2278H45.1214V44.7447H39.7182V40.7089H45.1214V35.9234C45.1214 32.8294 46.0785 30.3842 47.9926 28.5869C49.9073 26.7902 52.2951 25.8915 55.1559 25.8915C56.6994 25.8915 57.9239 26.0648 58.8301 26.4108V30.677Z" stroke="#946E83" stroke-width="4" stroke-miterlimit="10" stroke-linecap="round" stroke-linejoin="round"/>
<path d="M191.419 71.2832H166.413C159.92 71.2832 154.656 66.3686 154.656 60.3062V36.959C154.656 30.8966 159.92 25.982 166.413 25.982H191.419C197.912 25.982 203.176 30.8966 203.176 36.959V60.3062C203.176 66.3686 197.912 71.2832 191.419 71.2832Z" stroke="#946E83" stroke-width="5.33333" stroke-miterlimit="10"/>
<path d="M178.916 57.7332C173.533 57.7332 169.169 53.6589 169.169 48.6327C169.169 43.6065 173.533 39.5317 178.916 39.5317C184.299 39.5317 188.663 43.6065 188.663 48.6327C188.663 53.6589 184.299 57.7332 178.916 57.7332Z" stroke="#946E83" stroke-width="5.33333" stroke-miterlimit="10"/>
<path d="M356.013 46.6507C356.013 72.1388 333.882 92.8013 306.583 92.8013C279.284 92.8013 257.154 72.1388 257.154 46.6507C257.154 21.1625 279.284 0.500057 306.583 0.500057C333.882 0.500057 356.013 21.1625 356.013 46.6507Z" fill="#CDD5D1"/>
<path d="M479.131 47.783C479.131 73.2711 457.001 93.9336 429.702 93.9336C402.403 93.9336 380.273 73.2711 380.273 47.783C380.273 22.2948 402.403 1.63238 429.702 1.63238C457.001 1.63238 479.131 22.2948 479.131 47.783Z" fill="#CDD5D1"/>
<path d="M193.45 37.3474C192.098 37.3474 191.003 36.3242 191.003 35.062C191.003 33.7998 192.098 32.7771 193.45 32.7771C194.802 32.7771 195.898 33.7998 195.898 35.062C195.898 36.3242 194.802 37.3474 193.45 37.3474Z" fill="#946E83"/>
<path d="M285.02 61.8398C290.225 62.1756 294.876 61.0295 299.052 58.1863C295.351 57.278 292.148 55.9524 290.483 52.4676C289.2 50.6459 293.006 51.9523 294.03 51.2943C290.035 49.8356 286.973 47.1838 286.57 43.0002C286.199 41.0494 289.17 43.3813 290.584 42.9164C286.974 39.9837 285.437 35.6025 287.477 31.4314C287.793 30.7507 288.03 30.5656 288.663 31.2326C292.732 35.521 297.743 38.3664 303.733 39.6796C304.73 39.6847 309.08 41.2 308.564 39.4338C307.141 31.0633 318.596 25.3554 325.299 31.2026C327.287 32.4116 330.079 30.3283 332.084 29.7003C332.052 30.9342 331.599 31.5458 328.523 34.5464C330.28 34.4592 331.816 33.8403 333.635 33.3137C332.297 36.1178 328.567 37.0397 328.707 39.6887C329.369 59.7967 302.508 73.7076 285.02 61.8398Z" fill="#946E83"/>
<path d="M285.02 61.8398C290.225 62.1756 294.876 61.0295 299.052 58.1863C295.351 57.278 292.148 55.9524 290.483 52.4676C289.2 50.6459 293.006 51.9523 294.03 51.2943C290.035 49.8356 286.973 47.1838 286.57 43.0002C286.199 41.0494 289.17 43.3813 290.584 42.9164C286.974 39.9837 285.437 35.6025 287.477 31.4314C287.793 30.7507 288.03 30.5656 288.663 31.2326C292.732 35.521 297.743 38.3664 303.733 39.6796C304.73 39.6847 309.08 41.2 308.564 39.4338C307.141 31.0633 318.596 25.3554 325.299 31.2026C327.287 32.4116 330.079 30.3283 332.084 29.7003C332.052 30.9342 331.599 31.5458 328.523 34.5464C330.28 34.4592 331.816 33.8403 333.635 33.3137C332.297 36.1178 328.567 37.0397 328.707 39.6887C329.369 59.7967 302.508 73.7076 285.02 61.8398Z" stroke="#946E83" stroke-width="4" stroke-miterlimit="10" stroke-linecap="round" stroke-linejoin="round"/>
<path d="M417.513 28.2764C417.509 31.0155 415.167 33.1848 412.216 33.1848C405.252 33.0427 405.324 23.5283 412.204 23.3607C415.118 23.3579 417.519 25.5787 417.513 28.2764Z" fill="#946E83"/>
<path d="M417.513 28.2764C417.509 31.0155 415.167 33.1848 412.216 33.1848C405.252 33.0427 405.324 23.5283 412.204 23.3607C415.118 23.3579 417.519 25.5787 417.513 28.2764Z" stroke="#946E83" stroke-width="4" stroke-miterlimit="10"/>
<path d="M416.756 63.779C416.758 64.4222 416.49 64.6204 415.831 64.6148C413.409 64.5915 410.986 64.587 408.563 64.6165C407.826 64.6261 407.638 64.3401 407.641 63.7053C407.669 55.1881 407.642 46.6698 407.651 38.1509C407.651 37.0999 407.663 37.0892 408.753 37.0875C411.126 37.0847 413.5 37.0999 415.873 37.0796C416.501 37.0739 416.756 37.2681 416.756 37.878C416.743 46.5113 416.743 55.1451 416.756 63.779Z" fill="#946E83"/>
<path d="M416.756 63.779C416.758 64.4222 416.49 64.6204 415.831 64.6148C413.409 64.5915 410.986 64.587 408.563 64.6165C407.826 64.6261 407.638 64.3401 407.641 63.7053C407.669 55.1881 407.642 46.6698 407.651 38.1509C407.651 37.0999 407.663 37.0892 408.753 37.0875C411.126 37.0847 413.5 37.0999 415.873 37.0796C416.501 37.0739 416.756 37.2681 416.756 37.878C416.743 46.5113 416.743 55.1451 416.756 63.779Z" stroke="#946E83" stroke-width="4" stroke-miterlimit="10"/>
<path d="M451.232 55.711C451.232 58.3447 451.234 60.9773 451.231 63.6116C451.231 64.568 451.194 64.6042 450.202 64.6054C447.826 64.6082 445.452 64.6082 443.076 64.6042C442.167 64.6025 442.103 64.5459 442.102 63.6948C442.097 59.2366 442.099 54.7784 442.099 50.3196C442.099 49.2318 442.056 48.1491 441.764 47.0874C441.241 45.1893 440.02 44.1037 438.147 43.8738C433.303 43.2951 431.6 46.7114 431.666 50.4623C431.629 54.8045 431.649 59.1477 431.645 63.491C431.645 64.6025 431.642 64.6054 430.442 64.6054C428.141 64.6065 425.84 64.5918 423.538 64.6139C422.873 64.6207 422.617 64.4032 422.619 63.7684C422.633 55.1521 422.633 46.5353 422.617 37.9184C422.616 37.2791 422.875 37.0713 423.538 37.0781C425.84 37.103 428.14 37.1002 430.441 37.0798C431.072 37.0741 431.345 37.278 431.321 37.885C431.288 38.6682 431.312 39.4553 431.323 40.2401C431.326 40.3896 431.277 40.5969 431.493 40.6546C431.663 40.7005 431.751 40.5436 431.828 40.4315C434.786 36.09 440.964 35.6641 445.415 37.2485C447.532 38.0028 448.978 39.4513 449.878 41.3811C450.886 43.5437 451.132 45.845 451.195 48.1571C451.265 50.6735 451.211 53.1934 451.211 55.711H451.232Z" fill="#946E83"/>
<path d="M451.232 55.711C451.232 58.3447 451.234 60.9773 451.231 63.6116C451.231 64.568 451.194 64.6042 450.202 64.6054C447.826 64.6082 445.452 64.6082 443.076 64.6042C442.167 64.6025 442.103 64.5459 442.102 63.6948C442.097 59.2366 442.099 54.7784 442.099 50.3196C442.099 49.2318 442.056 48.1491 441.764 47.0874C441.241 45.1893 440.02 44.1037 438.147 43.8738C433.303 43.2951 431.6 46.7114 431.666 50.4623C431.629 54.8045 431.649 59.1477 431.645 63.491C431.645 64.6025 431.642 64.6054 430.442 64.6054C428.141 64.6065 425.84 64.5918 423.538 64.6139C422.873 64.6207 422.617 64.4032 422.619 63.7684C422.633 55.1521 422.633 46.5353 422.617 37.9184C422.616 37.2791 422.875 37.0713 423.538 37.0781C425.84 37.103 428.14 37.1002 430.441 37.0798C431.072 37.0741 431.345 37.278 431.321 37.885C431.288 38.6682 431.312 39.4553 431.323 40.2401C431.326 40.3896 431.277 40.5969 431.493 40.6546C431.663 40.7005 431.751 40.5436 431.828 40.4315C434.786 36.09 440.964 35.6641 445.415 37.2485C447.532 38.0028 448.978 39.4513 449.878 41.3811C450.886 43.5437 451.132 45.845 451.195 48.1571C451.265 50.6735 451.211 53.1934 451.211 55.711H451.232Z" stroke="#946E83" stroke-width="4" stroke-miterlimit="10"/>
</svg>
