<svg width="312" height="288" viewBox="0 0 312 288" fill="none" xmlns="http://www.w3.org/2000/svg">
<path d="M135.437 203.656C133.506 201.448 130.574 199.813 127.159 199.025C128.716 197.442 129.663 195.112 129.663 192.578C129.663 188.055 126.588 184.058 122.421 184.058C118.255 184.058 115.176 188.054 115.176 192.578C115.176 195.123 116.132 197.464 117.702 199.048C116.567 199.316 115.488 199.677 114.483 200.121C114.535 199.709 114.562 199.288 114.562 198.86C114.562 194.337 111.487 190.341 107.32 190.341C103.153 190.341 100.075 194.336 100.075 198.86C100.075 201.406 101.031 203.746 102.6 205.33C99.9779 205.948 97.6516 207.067 95.8477 208.555C93.5013 210.491 92 213.092 92 216.021V233.986V234.986H93H120.88C121.17 234.986 121.442 234.989 121.711 234.999L122.75 235.04V234V228.704H127.869V231.323V232.323H128.869H156.749C157.039 232.323 157.311 232.326 157.58 232.336L158.619 232.377V231.337V230.599H170.541C170.831 230.599 171.102 230.602 171.372 230.612L172.411 230.653V229.613V224.646H189.13C189.419 224.646 189.691 224.648 189.961 224.659L191 224.7V223.66V205.68C191 202.738 189.486 200.126 187.122 198.188C185.301 196.695 182.953 195.577 180.308 194.967C181.864 193.384 182.811 191.053 182.811 188.519C182.811 183.996 179.737 180 175.569 180L175.569 180C171.404 180.001 168.326 183.997 168.326 188.52C168.326 191.066 169.282 193.406 170.852 194.99C167.658 195.744 164.885 197.244 162.973 199.264C163.769 197.885 164.223 196.228 164.223 194.473C164.223 189.95 161.148 185.954 156.981 185.954C153.308 185.954 150.481 189.059 149.863 192.894C148.79 189.894 146.292 187.678 143.189 187.678C139.022 187.678 135.944 191.673 135.944 196.197C135.944 198.742 136.899 201.082 138.469 202.666C137.404 202.917 136.388 203.249 135.437 203.656ZM150.304 197.787C150.74 199.003 151.411 200.084 152.262 200.943C150.758 201.298 149.354 201.817 148.089 202.474C149.226 201.246 150.012 199.607 150.304 197.787Z" stroke="#CDD5D1" stroke-width="2"/>
</svg>
