<svg width="237" height="207" viewBox="0 0 237 207" fill="none" xmlns="http://www.w3.org/2000/svg">
<path d="M75.6892 200V179.955H86.2012V190.202V193.202H89.2012H153.872C154.533 193.202 155.127 193.211 155.704 193.247L158.89 193.445V190.252V186.892H185.863C186.525 186.892 187.118 186.9 187.696 186.936L190.882 187.135V183.942V165.101H228.981C229.643 165.101 230.236 165.109 230.814 165.145L234 165.344V162.151V96.338C234 78.2996 223.425 62.7654 208.393 57.6464C209.917 55.5618 211.186 53.0856 212.186 50.3895C213.981 45.5453 215.005 39.731 215.005 33.524C215.005 25.5361 213.31 18.1563 210.421 12.6642C207.605 7.31068 203.195 3 197.527 3L197.527 3.00173C191.861 3.00359 187.45 7.31298 184.633 12.6654C181.742 18.1575 180.044 25.5375 180.044 33.5257C180.044 39.7521 181.075 45.5837 182.881 50.4374C183.889 53.1477 185.172 55.6355 186.713 57.7246C179.913 60.0957 174.032 64.6067 169.648 70.5026C171.083 66.0181 171.889 60.822 171.889 55.3169C171.889 47.329 170.193 39.9492 167.304 34.4571C164.489 29.1035 160.078 24.7929 154.41 24.7929C148.743 24.7929 144.331 29.103 141.513 34.4565C139.737 37.8313 138.411 41.919 137.652 46.4226C136.999 44.3797 136.213 42.4817 135.312 40.7675C132.496 35.414 128.086 31.1033 122.418 31.1033C116.75 31.1033 112.338 35.4134 109.52 40.7669C106.629 46.259 104.932 53.639 104.932 61.6273C104.932 67.8536 105.962 73.6852 107.768 78.539C108.777 81.2487 110.058 83.7361 111.599 85.8251C109.228 86.6505 106.966 87.7361 104.84 89.0516C100.29 81.2839 93.3655 75.319 85.1097 72.5034C86.6346 70.4185 87.9042 67.9418 88.9037 65.2452C90.6991 60.4009 91.7234 54.5865 91.7234 48.3795C91.7234 40.3917 90.0277 33.0118 87.139 27.5198C84.3231 22.1662 79.913 17.8555 74.245 17.8555C68.5775 17.8555 64.1654 22.1656 61.3476 27.5192C58.4568 33.0113 56.759 40.3913 56.759 48.3795C56.759 54.6059 57.7897 60.4375 59.5957 65.2912C60.6044 68.0021 61.8869 70.4904 63.4284 72.5799C60.9967 73.4291 58.6811 74.5528 56.5095 75.915C56.6318 74.4327 56.6949 72.9165 56.6949 71.3748C56.6949 63.3869 54.9993 56.0071 52.1105 50.5151C49.2946 45.1615 44.8845 40.8508 39.2165 40.8508C33.5491 40.8508 29.1371 45.1608 26.3192 50.5143C23.4285 56.0064 21.7308 63.3864 21.7308 71.3748C21.7308 77.6011 22.7615 83.4328 24.5675 88.2865C25.5757 90.9962 26.8575 93.4835 28.3982 95.5724C13.4798 100.767 3 116.236 3 134.189V199.95V202.95H6H70.6703C71.332 202.95 71.9255 202.958 72.5029 202.994L75.6892 203.193V200ZM137.076 78.4929C137.98 76.0548 138.688 73.371 139.169 70.5151C139.356 71.0986 139.553 71.6701 139.761 72.2285C140.77 74.9393 142.052 77.4275 143.594 79.5169C140.139 80.7231 136.918 82.483 134.012 84.6949C135.216 82.8483 136.241 80.7475 137.076 78.4929Z" stroke="#DDF8E8" stroke-width="6"/>
</svg>
