<svg width="305" height="222" viewBox="0 0 305 222" fill="none" xmlns="http://www.w3.org/2000/svg">
<path d="M230.627 63.3719C219.716 75.2135 204.112 72.252 195.772 56.7561C187.434 41.2603 189.52 19.0983 200.431 7.25666C211.342 -4.58494 226.948 -1.6234 235.286 13.8725C243.624 29.3683 241.539 51.5303 230.627 63.3719Z" fill="#DDF8E8"/>
<path d="M271.368 142.995C272.377 147.214 273.275 151.565 274.054 156.033L275.48 164.202L269.616 165.416C268.521 165.644 242.489 170.972 215.529 170.972C213.201 170.972 210.916 170.935 208.67 170.874C209.499 174.479 210.256 178.166 210.917 181.95L212.343 190.119L206.478 191.335C205.383 191.561 179.35 196.889 152.391 196.889C122.819 196.889 99.2123 191.544 98.2228 191.317L92.463 189.992L93.8662 181.95C94.528 178.16 95.2854 174.469 96.1159 170.86C93.8447 170.931 91.553 170.972 89.2528 170.972C59.6804 170.972 36.0751 165.627 35.0846 165.4L29.3248 164.075L30.728 156.033C31.508 151.565 32.4051 147.214 33.4139 142.995C12.7084 151.314 0.326172 161.849 0.326172 173.312C0.326172 200.201 68.4076 222 152.391 222C236.374 222 304.457 200.201 304.457 173.312C304.457 161.849 292.075 151.314 271.368 142.995Z" fill="#DDF8E8"/>
<path d="M104.351 63.3719C93.4398 75.2135 77.8355 72.252 69.4961 56.7561C61.1579 41.2603 63.2443 19.0983 74.1547 7.25666C85.0661 -4.58494 100.671 -1.6234 109.01 13.8725C117.348 29.3683 115.263 51.5303 104.351 63.3719Z" fill="#DDF8E8"/>
<path d="M268.84 157.868C260.91 112.427 240.036 79.9783 215.529 79.9783C201.185 79.9783 188.092 91.1073 178.103 109.438C181.969 112.992 185.668 117.355 189.148 122.532C196.47 133.422 202.438 147.264 206.758 163.184C209.613 163.284 212.539 163.342 215.529 163.342C242.409 163.342 268.84 157.868 268.84 157.868Z" fill="#DDF8E8"/>
<path d="M126.679 109.438C116.691 91.1076 103.597 79.9785 89.2531 79.9785C64.7464 79.9785 43.8723 112.427 35.9423 157.868C35.9423 157.868 59.7721 163.343 89.2531 163.343C92.1969 163.343 95.1332 163.274 98.0319 163.158C102.351 147.249 108.317 133.416 115.635 122.533C119.114 117.356 122.814 112.992 126.679 109.438Z" fill="#DDF8E8"/>
<path d="M205.702 183.785C197.772 138.345 176.898 105.896 152.391 105.896C127.885 105.896 107.01 138.345 99.0806 183.785C99.0806 183.785 122.91 189.26 152.391 189.26C179.271 189.26 205.702 183.785 205.702 183.785Z" fill="#DDF8E8"/>
<path d="M167.489 89.2892C156.578 101.131 140.974 98.1693 132.634 82.6734C124.296 67.1776 126.382 45.0156 137.293 33.174C148.204 21.3324 163.809 24.2939 172.148 39.7898C180.486 55.2856 178.401 77.4476 167.489 89.2892Z" fill="#DDF8E8"/>
</svg>
