<svg width="630" height="326" viewBox="0 0 630 326" fill="none" xmlns="http://www.w3.org/2000/svg">
<path d="M1.45221 287.104C0.680999 287.406 0.301066 288.277 0.603604 289.048L5.53374 301.615C5.83628 302.387 6.70672 302.767 7.47793 302.464C8.24914 302.161 8.62907 301.291 8.32653 300.52L3.94419 289.349L15.1154 284.966C15.8866 284.664 16.2665 283.793 15.964 283.022C15.6614 282.251 14.791 281.871 14.0198 282.173L1.45221 287.104ZM626.503 0.912819C624.403 36.9714 603.612 81.272 568.598 125.427C533.613 169.546 484.549 213.365 426.165 248.464C309.391 318.666 155.534 353.878 2.60005 287.125L1.39995 289.875C155.466 357.122 310.359 321.584 427.71 251.036C486.389 215.76 535.73 171.704 570.949 127.291C606.138 82.9155 627.347 38.0286 629.497 1.08718L626.503 0.912819Z" fill="#DDF8E8"/>
</svg>
