<svg width="477" height="271" viewBox="0 0 477 271" fill="none" xmlns="http://www.w3.org/2000/svg">
<path d="M472.438 220.072C472.201 219.278 471.366 218.826 470.572 219.062L457.633 222.916C456.84 223.152 456.388 223.988 456.624 224.781C456.86 225.575 457.696 226.027 458.49 225.791L469.991 222.366L473.416 233.867C473.652 234.66 474.488 235.112 475.281 234.876C476.075 234.64 476.527 233.804 476.291 233.01L472.438 220.072ZM0.5 0.5C0.5 47.5388 25.5585 93.2676 64.005 133.227C102.468 173.204 154.466 207.556 208.699 231.869C262.923 256.177 319.498 270.501 367.139 270.312C414.74 270.124 453.812 255.421 472.319 221.214L469.681 219.786C451.938 252.579 414.26 267.126 367.127 267.313C320.034 267.499 263.889 253.323 209.926 229.131C155.972 204.944 104.313 170.796 66.1669 131.148C28.004 91.4824 3.5 46.4612 3.5 0.5H0.5Z" fill="#DDF8E8"/>
</svg>
