<svg width="532" height="323" viewBox="0 0 532 323" fill="none" xmlns="http://www.w3.org/2000/svg">
<path d="M1.47029 304.597C0.695238 304.889 0.304093 305.755 0.596644 306.53L5.36404 319.16C5.65659 319.935 6.52205 320.326 7.2971 320.034C8.07215 319.741 8.4633 318.876 8.17075 318.1L3.93307 306.874L15.1599 302.636C15.935 302.343 16.3261 301.478 16.0336 300.703C15.741 299.928 14.8755 299.537 14.1005 299.829L1.47029 304.597ZM527.082 0.989506C530.514 10.9291 528.215 24.484 520.737 40.6838C513.286 56.8249 500.822 75.3128 484.389 94.9434C451.53 134.196 402.965 177.827 347.46 216.141C291.955 254.454 229.583 287.401 169.128 305.343C108.65 323.293 50.2793 326.174 2.61776 304.633L1.38224 307.367C49.9707 329.326 109.163 326.27 169.981 308.219C230.823 290.162 293.482 257.046 349.165 218.609C404.848 180.173 453.626 136.366 486.689 96.8691C503.217 77.1247 515.859 58.4095 523.461 41.9412C531.035 25.5316 533.736 11.0709 529.918 0.0104938L527.082 0.989506Z" fill="#DDF8E8"/>
</svg>
